<svg width="754" height="211" viewBox="0 0 754 211" fill="none" xmlns="http://www.w3.org/2000/svg">
<path fill-rule="evenodd" clip-rule="evenodd" d="M316 69.529V139.058H329.5H343V111.237V83.417L345.75 77.994C350.54 68.548 359.971 64.329 371.475 66.487C376.146 67.364 381.812 72.431 384.414 78.058C386.337 82.216 386.52 84.704 386.829 110.808L387.163 139.058H400.081H413V109.768C413 71.739 411.752 66.478 400.003 54.982C392.481 47.622 383.418 44.05 370.395 43.315C359.946 42.725 353.788 44.256 347.089 49.108L343.034 52.046L342.767 26.302L342.5 0.558L329.25 0.279L316 0V69.529ZM129.723 9.308C124.856 16.739 121.108 22.491 103.497 49.558C100.634 53.958 95.229 62.283 91.486 68.058C76.508 91.167 73.914 95.157 63.863 110.558C58.119 119.358 50.738 130.723 47.46 135.813C44.182 140.904 37.45 151.273 32.5 158.855C27.55 166.438 19.225 179.313 14 187.467C8.775 195.622 3.488 203.543 2.25 205.07C1.012 206.597 0 208.344 0 208.952C0 209.719 5.506 210.058 17.946 210.058H35.893L41.196 202.522C59.494 176.523 64.858 170.699 75.453 165.327C87.746 159.092 99.949 158.104 165.376 158.04L217.253 157.99L216.588 147.274C216.222 141.38 215.517 128.683 215.023 119.058C211.639 53.237 208.513 3.373 207.705 2.308C206.976 1.349 198.419 1.058 170.941 1.058H135.126L129.723 9.308ZM242 22.558V44.058H233H224V54.558V65.058H232.921H241.841L242.171 88.808C242.498 112.44 242.514 112.588 245.324 118.668C254.177 137.824 277.159 145.469 300.25 136.938C303.413 135.77 306 134.455 306 134.016C306 133.091 299.96 115.738 299.45 115.196C299.262 114.996 296.979 115.559 294.376 116.446C285.109 119.603 276.667 117.419 271.384 110.498L268.5 106.72L268.194 85.889L267.888 65.058H284.444H301V54.558V44.058H284.5H268V22.558V1.058H255H242V22.558ZM150.584 40.194C151.267 41.299 153.166 76.329 154.603 114.308L155.312 133.058L148.906 133.045C145.383 133.037 135.075 133.219 126 133.448C116.925 133.677 105.338 133.615 100.25 133.31C92.184 132.827 91 132.524 91 130.941C91 128.086 93.781 122.566 102.278 108.558C117.33 83.742 142.756 43.259 144.83 40.808C146.51 38.822 149.536 38.499 150.584 40.194ZM693.5 42.041C681.979 43.356 673.247 47.634 665.427 55.796C662.992 58.337 661.033 60.898 661.074 61.487C661.153 62.614 676.298 76.058 677.49 76.058C677.871 76.058 679.994 74.507 682.208 72.612C690.465 65.544 705.035 63.78 714.832 68.661C719.696 71.086 725 76.374 725 78.801C725 79.493 717.856 80.006 704.25 80.293C680.538 80.793 673.977 82.215 665.726 88.644C658.959 93.916 656.484 99.566 656.564 109.558C656.699 126.307 665.859 135.841 685.529 139.706C692.972 141.169 695.466 141.252 702.253 140.262C711.353 138.936 718.96 135.788 724.216 131.173C726.209 129.423 728.058 128.343 728.323 128.774C728.588 129.205 729.125 131.695 729.516 134.308L730.227 139.058H742.029H753.831L753.312 107.808C752.934 85.101 752.4 75.154 751.358 71.423C745.688 51.11 721.528 38.841 693.5 42.041ZM464 44.666C436.816 51.964 422.477 77.655 429.87 105.816C432.176 114.599 435.822 120.963 441.869 126.758C451.709 136.188 462.42 140.058 478.684 140.058C493.111 140.058 503.156 136.997 512.271 129.824C515.88 126.984 521.583 119.682 522.205 117.106C522.384 116.364 518.387 114.4 512.048 112.113L501.596 108.344L498.516 111.609C490.211 120.415 468.508 119.759 459.814 110.438C458.336 108.854 456.662 106.326 456.093 104.82L455.059 102.083L491.279 101.82L527.5 101.558L527.386 92.031C527.2 76.514 523.515 66.594 514.38 57.017C505.483 47.69 493.234 43.007 478.04 43.124C473.343 43.16 467.025 43.854 464 44.666ZM584.994 43.992C580.556 45.342 575.581 48.205 572.351 51.268L569.202 54.254L568.526 50.906C567.047 43.574 567.973 44.058 555.433 44.058H544V91.558V139.058H557.456H570.912L571.206 110.808C571.496 82.955 571.535 82.488 574 77.565C575.583 74.403 578.089 71.47 580.831 69.568C584.559 66.983 586.228 66.521 592.831 66.242C599.901 65.944 600.859 66.15 605.106 68.875C608.277 70.911 610.457 73.346 612.106 76.695C614.437 81.431 614.508 82.31 614.806 110.308L615.113 139.058H628.655H642.198L641.748 109.308C641.4 86.299 640.941 78.312 639.723 74.058C635.232 58.373 623.594 47.685 607.201 44.188C601.296 42.929 588.851 42.819 584.994 43.992ZM490.751 68.232C495.095 70.281 500.444 75.822 501.323 79.184C501.791 80.977 500.791 81.058 478.305 81.058H454.797L457.283 76.808C460.074 72.035 467.095 67.13 472.78 65.982C478.046 64.918 485.777 65.886 490.751 68.232ZM726 101.098C726 101.67 725.079 103.943 723.953 106.149C718.905 116.044 700.884 121.075 688.922 115.929C685.49 114.453 683.791 113.074 683.378 111.429C682.346 107.316 683.811 104.206 687.765 102.118C691.053 100.382 693.564 100.141 708.75 100.102C720.052 100.073 726 100.417 726 101.098ZM713.845 152.491C704.993 155.874 702 159.814 702 168.085C702 177.135 707.442 180.493 724 181.659C734.928 182.429 739.716 183.658 740.979 186.02C743.285 190.327 738.349 193.944 729.011 194.791C721.943 195.432 714.523 192.565 713.021 188.612C712.187 186.419 711.445 186.06 707.775 186.073C702.013 186.094 700.554 187.144 701.431 190.64C702.516 194.963 705.782 198.906 710.103 201.11C717.955 205.116 736.457 205.479 743.569 201.767C751.823 197.458 755.289 188.463 751.445 181.326C748.604 176.05 743.919 174.244 729.815 172.986C716.547 171.803 712.663 170.368 713.189 166.845C713.719 163.29 718.158 160.89 725.13 160.39C732.411 159.867 737.799 161.927 739.5 165.885C740.43 168.048 740.886 168.164 746 167.538C749.025 167.168 751.611 166.76 751.747 166.631C751.883 166.502 751.276 164.289 750.398 161.711C749.103 157.912 747.921 156.509 744.15 154.295C739.944 151.825 738.45 151.542 728.5 151.329C720.98 151.168 716.343 151.535 713.845 152.491ZM663 156.558V161.058H674H685L684.978 171.808C684.944 188.359 681.309 194.063 670.8 194.054C662.854 194.047 658.3 189.516 656.48 179.808C655.779 176.065 655.768 176.058 650.746 176.058H645.715L646.368 182.308C647.686 194.919 656.305 203.171 668.903 203.883C678.471 204.423 683.358 202.799 688.896 197.238C695.191 190.915 696 187.609 696 168.192V152.058H679.5H663V156.558Z" fill="#8000FF"/>
<path fill-rule="evenodd" clip-rule="evenodd" d="M316 69.529V139.058H329.5H343V111.237V83.417L345.75 77.994C350.54 68.548 359.971 64.329 371.475 66.487C376.146 67.364 381.812 72.431 384.414 78.058C386.337 82.216 386.52 84.704 386.829 110.808L387.163 139.058H400.081H413V109.768C413 71.739 411.752 66.478 400.003 54.982C392.481 47.622 383.418 44.05 370.395 43.315C359.946 42.725 353.788 44.256 347.089 49.108L343.034 52.046L342.767 26.302L342.5 0.558L329.25 0.279L316 0V69.529ZM129.723 9.308C124.856 16.739 121.108 22.491 103.497 49.558C100.634 53.958 95.229 62.283 91.486 68.058C76.508 91.167 73.914 95.157 63.863 110.558C58.119 119.358 50.738 130.723 47.46 135.813C44.182 140.904 37.45 151.273 32.5 158.855C27.55 166.438 19.225 179.313 14 187.467C8.775 195.622 3.488 203.543 2.25 205.07C1.012 206.597 0 208.344 0 208.952C0 209.719 5.506 210.058 17.946 210.058H35.893L41.196 202.522C59.707 176.221 64.868 170.664 75.959 165.092C87.996 159.045 99.934 158.104 165.384 158.04L217.268 157.99L216.618 147.774C216.261 142.155 215.543 129.233 215.022 119.058C211.695 53.975 208.714 5.243 207.941 3.308L207.043 1.058H171.085H135.126L129.723 9.308ZM242 22.558V44.058H233H224V54.558V65.058H232.921H241.841L242.171 88.808C242.498 112.44 242.514 112.588 245.324 118.668C254.177 137.824 277.159 145.469 300.25 136.938C303.413 135.77 306 134.455 306 134.016C306 133.091 299.96 115.738 299.45 115.196C299.262 114.996 296.979 115.559 294.376 116.446C285.109 119.603 276.667 117.419 271.384 110.498L268.5 106.72L268.194 85.889L267.888 65.058H284.444H301V54.558V44.058H284.5H268V22.558V1.058H255H242V22.558ZM151.385 45.308C152.138 53.963 155.046 119.152 155.021 126.808L155 133.058L149.25 133.06C146.088 133.061 135.85 133.239 126.5 133.454C117.15 133.67 105.338 133.601 100.25 133.301C92.181 132.826 91 132.525 91 130.941C91 126.703 97.228 115.999 130.789 62.558C145.359 39.358 145.586 39.058 148.575 39.058C150.63 39.058 150.892 39.641 151.385 45.308ZM693.5 42.047C681.935 43.357 673.464 47.516 665.558 55.767C663.051 58.383 661 60.831 661 61.207C661 62.018 672.522 72.625 675.743 74.779C677.836 76.178 678.229 76.064 681.64 73.07C687.401 68.011 693.041 66.058 701.887 66.058C708.199 66.058 710.56 66.533 714.832 68.661C719.781 71.128 725 76.384 725 78.902C725 79.732 720 80.063 707.25 80.075C677.594 80.104 665.525 84.353 658.842 97.117C655.563 103.378 655.604 115.474 658.927 122.328C663.521 131.806 673.234 137.757 688.124 140.216C700.826 142.313 715.785 138.576 724.178 131.207C726.15 129.475 727.99 128.058 728.267 128.058C728.543 128.058 729.079 130.533 729.457 133.558L730.144 139.058H742.003H753.862L753.389 109.308C753.129 92.945 752.416 76.933 751.804 73.724C749.162 59.876 735.314 47.17 718.5 43.168C712.232 41.677 701.159 41.18 693.5 42.047ZM464 44.666C436.816 51.964 422.477 77.655 429.87 105.816C432.176 114.599 435.822 120.963 441.869 126.758C451.709 136.188 462.42 140.058 478.684 140.058C493.111 140.058 503.156 136.997 512.271 129.824C515.88 126.984 521.583 119.682 522.205 117.106C522.384 116.364 518.387 114.4 512.048 112.113L501.596 108.344L498.516 111.609C490.211 120.415 468.508 119.759 459.814 110.438C458.336 108.854 456.662 106.326 456.093 104.82L455.059 102.083L491.279 101.82L527.5 101.558L527.386 92.031C527.2 76.514 523.515 66.594 514.38 57.017C505.483 47.69 493.234 43.007 478.04 43.124C473.343 43.16 467.025 43.854 464 44.666ZM584.994 43.992C580.556 45.342 575.581 48.205 572.351 51.268L569.202 54.254L568.526 50.906C567.047 43.574 567.973 44.058 555.433 44.058H544V91.558V139.058H557.456H570.912L571.206 110.808C571.496 82.955 571.535 82.488 574 77.565C575.583 74.403 578.089 71.47 580.831 69.568C584.559 66.983 586.228 66.521 592.831 66.242C599.901 65.944 600.859 66.15 605.106 68.875C608.277 70.911 610.457 73.346 612.106 76.695C614.437 81.431 614.508 82.31 614.806 110.308L615.113 139.058H628.655H642.198L641.748 109.308C641.4 86.299 640.941 78.312 639.723 74.058C635.232 58.373 623.594 47.685 607.201 44.188C601.296 42.929 588.851 42.819 584.994 43.992ZM490.751 68.232C495.095 70.281 500.444 75.822 501.323 79.184C501.791 80.977 500.791 81.058 478.305 81.058H454.797L457.283 76.808C460.074 72.035 467.095 67.13 472.78 65.982C478.046 64.918 485.777 65.886 490.751 68.232ZM726 101.098C726 101.67 725.079 103.943 723.953 106.149C718.905 116.044 700.884 121.075 688.922 115.929C685.49 114.453 683.791 113.074 683.378 111.429C682.346 107.316 683.811 104.206 687.765 102.118C691.053 100.382 693.564 100.141 708.75 100.102C720.052 100.073 726 100.417 726 101.098ZM713.845 152.491C704.993 155.874 702 159.814 702 168.085C702 177.135 707.442 180.493 724 181.659C734.928 182.429 739.716 183.658 740.979 186.02C743.285 190.327 738.349 193.944 729.011 194.791C721.943 195.432 714.523 192.565 713.021 188.612C712.187 186.419 711.445 186.06 707.775 186.073C702.013 186.094 700.554 187.144 701.431 190.64C702.516 194.963 705.782 198.906 710.103 201.11C717.955 205.116 736.457 205.479 743.569 201.767C751.823 197.458 755.289 188.463 751.445 181.326C748.604 176.05 743.919 174.244 729.815 172.986C716.547 171.803 712.663 170.368 713.189 166.845C713.719 163.29 718.158 160.89 725.13 160.39C732.411 159.867 737.799 161.927 739.5 165.885C740.43 168.048 740.886 168.164 746 167.538C749.025 167.168 751.611 166.76 751.747 166.631C751.883 166.502 751.276 164.289 750.398 161.711C749.103 157.912 747.921 156.509 744.15 154.295C739.944 151.825 738.45 151.542 728.5 151.329C720.98 151.168 716.343 151.535 713.845 152.491ZM663 156.558V161.058H674H685L684.978 171.808C684.944 188.359 681.309 194.063 670.8 194.054C662.854 194.047 658.3 189.516 656.48 179.808C655.779 176.065 655.768 176.058 650.746 176.058H645.715L646.368 182.308C647.686 194.919 656.305 203.171 668.903 203.883C678.471 204.423 683.358 202.799 688.896 197.238C695.191 190.915 696 187.609 696 168.192V152.058H679.5H663V156.558Z" fill="#5555FF"/>
<path fill-rule="evenodd" clip-rule="evenodd" d="M316 69.529V139.058H329.5H343V111.237V83.417L345.75 77.994C350.54 68.548 359.971 64.329 371.475 66.487C376.146 67.364 381.812 72.431 384.414 78.058C386.337 82.216 386.52 84.704 386.829 110.808L387.163 139.058H400.081H413V109.768C413 71.739 411.752 66.478 400.003 54.982C392.481 47.622 383.418 44.05 370.395 43.315C359.946 42.725 353.788 44.256 347.089 49.108L343.034 52.046L342.767 26.302L342.5 0.558L329.25 0.279L316 0V69.529ZM129.723 9.308C124.856 16.739 121.108 22.491 103.497 49.558C100.634 53.958 95.229 62.283 91.486 68.058C76.508 91.167 73.914 95.157 63.863 110.558C58.119 119.358 50.738 130.723 47.46 135.813C44.182 140.904 37.45 151.273 32.5 158.855C27.55 166.438 19.225 179.313 14 187.467C8.775 195.622 3.488 203.543 2.25 205.07C1.012 206.597 0 208.344 0 208.952C0 209.719 5.506 210.058 17.946 210.058H35.893L41.196 202.522C59.707 176.221 64.868 170.664 75.959 165.092C87.996 159.045 99.935 158.104 165.376 158.04L217.253 157.99L216.587 147.274C216.221 141.38 215.062 120.583 214.013 101.058C212.963 81.533 211.37 52.058 210.474 35.558C209.578 19.058 208.439 4.545 207.944 3.308L207.043 1.058H171.085H135.126L129.723 9.308ZM242 22.558V44.058H233H224V54.558V65.058H232.921H241.841L242.171 88.808C242.498 112.44 242.514 112.588 245.324 118.668C254.177 137.824 277.159 145.469 300.25 136.938C303.413 135.77 306 134.455 306 134.016C306 133.091 299.96 115.738 299.45 115.196C299.262 114.996 296.979 115.559 294.376 116.446C285.109 119.603 276.667 117.419 271.384 110.498L268.5 106.72L268.194 85.889L267.888 65.058H284.444H301V54.558V44.058H284.5H268V22.558V1.058H255H242V22.558ZM151.385 45.308C152.138 53.963 155.046 119.152 155.021 126.808L155 133.058L149.25 133.06C146.088 133.061 135.85 133.239 126.5 133.454C117.15 133.67 105.338 133.601 100.25 133.301C92.181 132.826 91 132.525 91 130.941C91 126.703 97.228 115.999 130.789 62.558C145.359 39.358 145.586 39.058 148.575 39.058C150.63 39.058 150.892 39.641 151.385 45.308ZM694 42.028C686.411 42.916 679.172 45.293 673.879 48.634C670.123 51.005 661 59.911 661 61.207C661 62.018 672.522 72.625 675.743 74.779C677.836 76.178 678.229 76.064 681.64 73.07C690.205 65.549 703.903 63.578 714.354 68.362C719.376 70.662 725 76.23 725 78.902C725 79.732 720 80.063 707.25 80.075C677.594 80.104 665.525 84.353 658.842 97.117C655.563 103.378 655.604 115.474 658.927 122.328C663.521 131.806 673.234 137.757 688.124 140.216C700.826 142.313 715.785 138.576 724.178 131.207C726.15 129.475 727.99 128.058 728.267 128.058C728.543 128.058 729.079 130.533 729.457 133.558L730.144 139.058H741.97H753.796L753.317 108.308C752.782 73.964 752.189 69.964 746.358 61.367C740.739 53.082 729.612 45.813 718.5 43.168C712.348 41.704 701.199 41.185 694 42.028ZM464 44.666C436.816 51.964 422.477 77.655 429.87 105.816C432.176 114.599 435.822 120.963 441.869 126.758C451.709 136.188 462.42 140.058 478.684 140.058C493.111 140.058 503.156 136.997 512.271 129.824C515.88 126.984 521.583 119.682 522.205 117.106C522.384 116.364 518.387 114.4 512.048 112.113L501.596 108.344L498.516 111.609C490.211 120.415 468.508 119.759 459.814 110.438C458.336 108.854 456.662 106.326 456.093 104.82L455.059 102.083L491.279 101.82L527.5 101.558L527.386 92.031C527.2 76.514 523.515 66.594 514.38 57.017C505.483 47.69 493.234 43.007 478.04 43.124C473.343 43.16 467.025 43.854 464 44.666ZM584.994 43.992C580.556 45.342 575.581 48.205 572.351 51.268L569.202 54.254L568.526 50.906C567.047 43.574 567.973 44.058 555.433 44.058H544V91.558V139.058H557.456H570.912L571.206 110.808C571.496 82.955 571.535 82.488 574 77.565C575.583 74.403 578.089 71.47 580.831 69.568C584.559 66.983 586.228 66.521 592.831 66.242C599.901 65.944 600.859 66.15 605.106 68.875C608.277 70.911 610.457 73.346 612.106 76.695C614.437 81.431 614.508 82.31 614.806 110.308L615.113 139.058H628.655H642.198L641.748 109.308C641.4 86.299 640.941 78.312 639.723 74.058C635.232 58.373 623.594 47.685 607.201 44.188C601.296 42.929 588.851 42.819 584.994 43.992ZM490.751 68.232C495.095 70.281 500.444 75.822 501.323 79.184C501.791 80.977 500.791 81.058 478.305 81.058H454.797L457.283 76.808C460.074 72.035 467.095 67.13 472.78 65.982C478.046 64.918 485.777 65.886 490.751 68.232ZM726 101.098C726 104.173 721.452 110.449 717.328 113.065C705.946 120.283 685.99 119.206 683.207 111.223C681.916 107.518 684.054 103.48 688.289 101.627C692.26 99.889 726 99.416 726 101.098ZM713.845 152.491C704.993 155.874 702 159.814 702 168.085C702 177.135 707.442 180.493 724 181.659C734.928 182.429 739.716 183.658 740.979 186.02C743.285 190.327 738.349 193.944 729.011 194.791C721.943 195.432 714.523 192.565 713.021 188.612C712.187 186.419 711.445 186.06 707.775 186.073C702.013 186.094 700.554 187.144 701.431 190.64C702.516 194.963 705.782 198.906 710.103 201.11C717.955 205.116 736.457 205.479 743.569 201.767C751.823 197.458 755.289 188.463 751.445 181.326C748.604 176.05 743.919 174.244 729.815 172.986C716.547 171.803 712.663 170.368 713.189 166.845C713.719 163.29 718.158 160.89 725.13 160.39C732.411 159.867 737.799 161.927 739.5 165.885C740.43 168.048 740.886 168.164 746 167.538C749.025 167.168 751.611 166.76 751.747 166.631C751.883 166.502 751.276 164.289 750.398 161.711C749.103 157.912 747.921 156.509 744.15 154.295C739.944 151.825 738.45 151.542 728.5 151.329C720.98 151.168 716.343 151.535 713.845 152.491ZM663 156.558V161.058H674H685L684.978 171.808C684.944 188.359 681.309 194.063 670.8 194.054C662.854 194.047 658.3 189.516 656.48 179.808C655.779 176.065 655.768 176.058 650.746 176.058H645.715L646.368 182.308C647.686 194.919 656.305 203.171 668.903 203.883C678.471 204.423 683.358 202.799 688.896 197.238C695.191 190.915 696 187.609 696 168.192V152.058H679.5H663V156.558Z" fill="#663EFF"/>
<path fill-rule="evenodd" clip-rule="evenodd" d="M316 69.529V139.058H329.5H343V111.237V83.417L345.75 77.994C350.54 68.548 359.971 64.329 371.475 66.487C376.146 67.364 381.812 72.431 384.414 78.058C386.337 82.216 386.52 84.704 386.829 110.808L387.163 139.058H400.081H413V109.768C413 71.739 411.752 66.478 400.003 54.982C392.481 47.622 383.418 44.05 370.395 43.315C359.946 42.725 353.788 44.256 347.089 49.108L343.034 52.046L342.767 26.302L342.5 0.558L329.25 0.279L316 0V69.529ZM129.723 9.308C124.856 16.739 121.108 22.491 103.497 49.558C100.634 53.958 95.229 62.283 91.486 68.058C76.508 91.167 73.914 95.157 63.863 110.558C58.119 119.358 50.738 130.723 47.46 135.813C44.182 140.904 37.45 151.273 32.5 158.855C27.55 166.438 19.225 179.313 14 187.467C8.775 195.622 3.488 203.543 2.25 205.07C1.012 206.597 0 208.344 0 208.952C0 209.719 5.506 210.058 17.946 210.058H35.893L41.196 202.531C52.77 186.106 62.214 173.558 63.003 173.558C63.46 173.558 64.208 173.148 64.667 172.648C65.161 172.108 64.922 172.073 64.08 172.562C63.048 173.161 62.821 172.967 63.249 171.851C63.836 170.323 87.12 134.917 89.419 132.058C90.082 131.233 91.464 128.533 92.489 126.058C94.137 122.078 101.587 109.38 114.196 89.058C128.803 65.515 143.6 42.257 145.052 40.558C145.991 39.458 148.845 34.85 151.394 30.319C158.878 17.01 167 2.024 167 1.522C167 1.267 159.828 1.058 151.063 1.058H135.126L129.723 9.308ZM242 22.558V44.058H233H224V54.558V65.058H232.921H241.841L242.171 88.808C242.498 112.44 242.514 112.588 245.324 118.668C254.177 137.824 277.159 145.469 300.25 136.938C303.413 135.77 306 134.455 306 134.016C306 133.091 299.96 115.738 299.45 115.196C299.262 114.996 296.979 115.559 294.376 116.446C285.109 119.603 276.667 117.419 271.384 110.498L268.5 106.72L268.194 85.889L267.888 65.058H284.444H301V54.558V44.058H284.5H268V22.558V1.058H255H242V22.558ZM464 44.666C436.816 51.964 422.477 77.655 429.87 105.816C432.176 114.599 435.822 120.963 441.869 126.758C451.709 136.188 462.42 140.058 478.684 140.058C493.111 140.058 503.156 136.997 512.271 129.824C515.88 126.984 521.583 119.682 522.205 117.106C522.384 116.364 518.387 114.4 512.048 112.113L501.596 108.344L498.516 111.609C490.211 120.415 468.508 119.759 459.814 110.438C458.336 108.854 456.662 106.326 456.093 104.82L455.059 102.083L491.279 101.82L527.5 101.558L527.386 92.031C527.2 76.514 523.515 66.594 514.38 57.017C505.483 47.69 493.234 43.007 478.04 43.124C473.343 43.16 467.025 43.854 464 44.666ZM584.994 43.992C580.556 45.342 575.581 48.205 572.351 51.268L569.202 54.254L568.526 50.906C567.047 43.574 567.973 44.058 555.433 44.058H544V91.558V139.058H557.456H570.912L571.206 110.808C571.496 82.955 571.535 82.488 574 77.565C575.583 74.403 578.089 71.47 580.831 69.568C584.559 66.983 586.228 66.521 592.831 66.242C599.901 65.944 600.859 66.15 605.106 68.875C608.277 70.911 610.457 73.346 612.106 76.695C614.437 81.431 614.508 82.31 614.806 110.308L615.113 139.058H628.655H642.198L641.748 109.308C641.4 86.299 640.941 78.312 639.723 74.058C635.232 58.373 623.594 47.685 607.201 44.188C601.296 42.929 588.851 42.819 584.994 43.992ZM490.751 68.232C495.095 70.281 500.444 75.822 501.323 79.184C501.791 80.977 500.791 81.058 478.305 81.058H454.797L457.283 76.808C460.074 72.035 467.095 67.13 472.78 65.982C478.046 64.918 485.777 65.886 490.751 68.232ZM713.845 152.491C704.993 155.874 702 159.814 702 168.085C702 177.135 707.442 180.493 724 181.659C734.928 182.429 739.716 183.658 740.979 186.02C743.285 190.327 738.349 193.944 729.011 194.791C721.943 195.432 714.523 192.565 713.021 188.612C712.187 186.419 711.445 186.06 707.775 186.073C702.013 186.094 700.554 187.144 701.431 190.64C702.516 194.963 705.782 198.906 710.103 201.11C717.955 205.116 736.457 205.479 743.569 201.767C751.823 197.458 755.289 188.463 751.445 181.326C748.604 176.05 743.919 174.244 729.815 172.986C716.547 171.803 712.663 170.368 713.189 166.845C713.719 163.29 718.158 160.89 725.13 160.39C732.411 159.867 737.799 161.927 739.5 165.885C740.43 168.048 740.886 168.164 746 167.538C749.025 167.168 751.611 166.76 751.747 166.631C751.883 166.502 751.276 164.289 750.398 161.711C749.103 157.912 747.921 156.509 744.15 154.295C739.944 151.825 738.45 151.542 728.5 151.329C720.98 151.168 716.343 151.535 713.845 152.491ZM663 156.558V161.058H674H685L684.978 171.808C684.944 188.359 681.309 194.063 670.8 194.054C662.854 194.047 658.3 189.516 656.48 179.808C655.779 176.065 655.768 176.058 650.746 176.058H645.715L646.368 182.308C647.686 194.919 656.305 203.171 668.903 203.883C678.471 204.423 683.358 202.799 688.896 197.238C695.191 190.915 696 187.609 696 168.192V152.058H679.5H663V156.558Z" fill="#552AFF"/>
<path fill-rule="evenodd" clip-rule="evenodd" d="M316 69.529V139.058H329.5H343V111.237V83.417L345.75 77.994C350.54 68.548 359.971 64.329 371.475 66.487C376.146 67.364 381.812 72.431 384.414 78.058C386.337 82.216 386.52 84.704 386.829 110.808L387.163 139.058H400.081H413V109.768C413 71.739 411.752 66.478 400.003 54.982C392.481 47.622 383.418 44.05 370.395 43.315C359.946 42.725 353.788 44.256 347.089 49.108L343.034 52.046L342.767 26.302L342.5 0.558L329.25 0.279L316 0V69.529ZM129.723 9.308C124.856 16.739 121.108 22.491 103.497 49.558C100.634 53.958 95.229 62.283 91.486 68.058C76.508 91.167 73.914 95.157 63.863 110.558C58.119 119.358 50.738 130.723 47.46 135.813C44.182 140.904 37.45 151.273 32.5 158.855C27.55 166.438 19.225 179.313 14 187.467C8.775 195.622 3.488 203.543 2.25 205.07C1.012 206.597 0 208.344 0 208.952C0 209.719 5.506 210.058 17.946 210.058H35.893L41.196 202.531C52.77 186.106 62.214 173.558 63.003 173.558C63.46 173.558 64.208 173.148 64.667 172.648C65.161 172.108 64.922 172.073 64.08 172.562C63.048 173.161 62.821 172.967 63.249 171.851C63.836 170.323 87.12 134.917 89.419 132.058C90.082 131.233 91.464 128.533 92.489 126.058C94.137 122.078 101.587 109.38 114.196 89.058C128.803 65.515 143.6 42.257 145.052 40.558C145.991 39.458 148.845 34.85 151.394 30.319C158.878 17.01 167 2.024 167 1.522C167 1.267 159.828 1.058 151.063 1.058H135.126L129.723 9.308ZM242 22.558V44.058H233H224V54.558V65.058H232.921H241.841L242.171 88.808C242.498 112.44 242.514 112.588 245.324 118.668C254.177 137.824 277.159 145.469 300.25 136.938C303.413 135.77 306 134.455 306 134.016C306 133.091 299.96 115.738 299.45 115.196C299.262 114.996 296.979 115.559 294.376 116.446C285.109 119.603 276.667 117.419 271.384 110.498L268.5 106.72L268.194 85.889L267.888 65.058H284.444H301V54.558V44.058H284.5H268V22.558V1.058H255H242V22.558ZM464 44.666C436.816 51.964 422.477 77.655 429.87 105.816C432.176 114.599 435.822 120.963 441.869 126.758C451.709 136.188 462.42 140.058 478.684 140.058C493.111 140.058 503.156 136.997 512.271 129.824C515.88 126.984 521.583 119.682 522.205 117.106C522.384 116.364 518.387 114.4 512.048 112.113L501.596 108.344L498.516 111.609C490.211 120.415 468.508 119.759 459.814 110.438C458.336 108.854 456.662 106.326 456.093 104.82L455.059 102.083L491.279 101.82L527.5 101.558L527.386 92.031C527.2 76.514 523.515 66.594 514.38 57.017C505.483 47.69 493.234 43.007 478.04 43.124C473.343 43.16 467.025 43.854 464 44.666ZM584.994 43.992C580.556 45.342 575.581 48.205 572.351 51.268L569.202 54.254L568.526 50.906C567.047 43.574 567.973 44.058 555.433 44.058H544V91.558V139.058H557.456H570.912L571.206 110.808C571.496 82.955 571.535 82.488 574 77.565C575.583 74.403 578.089 71.47 580.831 69.568C584.559 66.983 586.228 66.521 592.831 66.242C599.901 65.944 600.859 66.15 605.106 68.875C608.277 70.911 610.457 73.346 612.106 76.695C614.437 81.431 614.508 82.31 614.806 110.308L615.113 139.058H628.655H642.198L641.748 109.308C641.4 86.299 640.941 78.312 639.723 74.058C635.232 58.373 623.594 47.685 607.201 44.188C601.296 42.929 588.851 42.819 584.994 43.992ZM490.751 68.232C495.095 70.281 500.444 75.822 501.323 79.184C501.791 80.977 500.791 81.058 478.305 81.058H454.797L457.283 76.808C460.074 72.035 467.095 67.13 472.78 65.982C478.046 64.918 485.777 65.886 490.751 68.232ZM713.845 152.491C704.993 155.874 702 159.814 702 168.085C702 177.135 707.442 180.493 724 181.659C734.928 182.429 739.716 183.658 740.979 186.02C743.285 190.327 738.349 193.944 729.011 194.791C721.943 195.432 714.523 192.565 713.021 188.612C712.187 186.419 711.445 186.06 707.775 186.073C702.013 186.094 700.554 187.144 701.431 190.64C702.516 194.963 705.782 198.906 710.103 201.11C717.955 205.116 736.457 205.479 743.569 201.767C751.823 197.458 755.289 188.463 751.445 181.326C748.604 176.05 743.919 174.244 729.815 172.986C716.547 171.803 712.663 170.368 713.189 166.845C713.719 163.29 718.158 160.89 725.13 160.39C732.411 159.867 737.799 161.927 739.5 165.885C740.43 168.048 740.886 168.164 746 167.538C749.025 167.168 751.611 166.76 751.747 166.631C751.883 166.502 751.276 164.289 750.398 161.711C749.103 157.912 747.921 156.509 744.15 154.295C739.944 151.825 738.45 151.542 728.5 151.329C720.98 151.168 716.343 151.535 713.845 152.491ZM663 156.558V161.058H674H685L684.978 171.808C684.944 188.359 681.309 194.063 670.8 194.054C662.854 194.047 658.3 189.516 656.48 179.808C655.779 176.065 655.768 176.058 650.746 176.058H645.715L646.368 182.308C647.686 194.919 656.305 203.171 668.903 203.883C678.471 204.423 683.358 202.799 688.896 197.238C695.191 190.915 696 187.609 696 168.192V152.058H679.5H663V156.558Z" fill="#4E2FC2"/>
<path fill-rule="evenodd" clip-rule="evenodd" d="M316 69.529V139.058H329.5H343V111.237V83.417L345.75 77.994C350.54 68.548 359.971 64.329 371.475 66.487C376.146 67.364 381.812 72.431 384.414 78.058C386.337 82.216 386.52 84.704 386.829 110.808L387.163 139.058H400.081H413V109.768C413 71.739 411.752 66.478 400.003 54.982C392.481 47.622 383.418 44.05 370.395 43.315C359.946 42.725 353.788 44.256 347.089 49.108L343.034 52.046L342.767 26.302L342.5 0.558L329.25 0.279L316 0V69.529ZM129.723 9.308C124.856 16.739 121.108 22.491 103.497 49.558C100.634 53.958 95.229 62.283 91.486 68.058C76.508 91.167 73.914 95.157 63.863 110.558C58.119 119.358 50.738 130.723 47.46 135.813C44.182 140.904 37.45 151.273 32.5 158.855C27.55 166.438 19.225 179.313 14 187.467C8.775 195.622 3.488 203.543 2.25 205.07C1.012 206.597 0 208.344 0 208.952C0 209.719 5.506 210.058 17.946 210.058H35.893L41.196 202.517C44.113 198.369 49.301 191.161 52.725 186.498C56.149 181.835 59.485 177.019 60.14 175.796C60.795 174.572 68.215 163.164 76.628 150.444C85.041 137.724 92.473 126.022 93.144 124.438C94.241 121.846 103.332 106.568 114.196 89.058C129.672 64.116 143.624 42.241 145.171 40.494C146.177 39.358 147 38.172 147 37.858C147 37.544 149.843 32.173 153.317 25.923C156.791 19.672 161.313 11.52 163.366 7.808L167.098 1.058H151.112H135.126L129.723 9.308ZM242 22.558V44.058H233H224V54.558V65.058H232.921H241.841L242.171 88.808C242.498 112.44 242.514 112.588 245.324 118.668C254.177 137.824 277.159 145.469 300.25 136.938C303.413 135.77 306 134.455 306 134.016C306 133.091 299.96 115.738 299.45 115.196C299.262 114.996 296.979 115.559 294.376 116.446C285.109 119.603 276.667 117.419 271.384 110.498L268.5 106.72L268.194 85.889L267.888 65.058H284.444H301V54.558V44.058H284.5H268V22.558V1.058H255H242V22.558ZM464 44.666C436.816 51.964 422.477 77.655 429.87 105.816C432.176 114.599 435.822 120.963 441.869 126.758C451.709 136.188 462.42 140.058 478.684 140.058C493.111 140.058 503.156 136.997 512.271 129.824C515.88 126.984 521.583 119.682 522.205 117.106C522.384 116.364 518.387 114.4 512.048 112.113L501.596 108.344L498.516 111.609C490.211 120.415 468.508 119.759 459.814 110.438C458.336 108.854 456.662 106.326 456.093 104.82L455.059 102.083L491.279 101.82L527.5 101.558L527.386 92.031C527.2 76.514 523.515 66.594 514.38 57.017C505.483 47.69 493.234 43.007 478.04 43.124C473.343 43.16 467.025 43.854 464 44.666ZM584.994 43.992C580.556 45.342 575.581 48.205 572.351 51.268L569.202 54.254L568.526 50.906C567.047 43.574 567.973 44.058 555.433 44.058H544V91.558V139.058H557.456H570.912L571.206 110.808C571.496 82.955 571.535 82.488 574 77.565C575.583 74.403 578.089 71.47 580.831 69.568C584.559 66.983 586.228 66.521 592.831 66.242C599.901 65.944 600.859 66.15 605.106 68.875C608.277 70.911 610.457 73.346 612.106 76.695C614.437 81.431 614.508 82.31 614.806 110.308L615.113 139.058H628.655H642.198L641.748 109.308C641.4 86.299 640.941 78.312 639.723 74.058C635.232 58.373 623.594 47.685 607.201 44.188C601.296 42.929 588.851 42.819 584.994 43.992ZM490.751 68.232C495.095 70.281 500.444 75.822 501.323 79.184C501.791 80.977 500.791 81.058 478.305 81.058H454.797L457.283 76.808C460.074 72.035 467.095 67.13 472.78 65.982C478.046 64.918 485.777 65.886 490.751 68.232ZM713.845 152.491C704.993 155.874 702 159.814 702 168.085C702 177.135 707.442 180.493 724 181.659C734.928 182.429 739.716 183.658 740.979 186.02C743.285 190.327 738.349 193.944 729.011 194.791C721.943 195.432 714.523 192.565 713.021 188.612C712.187 186.419 711.445 186.06 707.775 186.073C702.013 186.094 700.554 187.144 701.431 190.64C702.516 194.963 705.782 198.906 710.103 201.11C717.955 205.116 736.457 205.479 743.569 201.767C751.823 197.458 755.289 188.463 751.445 181.326C748.604 176.05 743.919 174.244 729.815 172.986C716.547 171.803 712.663 170.368 713.189 166.845C713.719 163.29 718.158 160.89 725.13 160.39C732.411 159.867 737.799 161.927 739.5 165.885C740.43 168.048 740.886 168.164 746 167.538C749.025 167.168 751.611 166.76 751.747 166.631C751.883 166.502 751.276 164.289 750.398 161.711C749.103 157.912 747.921 156.509 744.15 154.295C739.944 151.825 738.45 151.542 728.5 151.329C720.98 151.168 716.343 151.535 713.845 152.491ZM663 156.558V161.058H674H685L684.978 171.808C684.944 188.359 681.309 194.063 670.8 194.054C662.854 194.047 658.3 189.516 656.48 179.808C655.779 176.065 655.768 176.058 650.746 176.058H645.715L646.368 182.308C647.686 194.919 656.305 203.171 668.903 203.883C678.471 204.423 683.358 202.799 688.896 197.238C695.191 190.915 696 187.609 696 168.192V152.058H679.5H663V156.558Z" fill="#0000FF"/>
<path fill-rule="evenodd" clip-rule="evenodd" d="M316 69.529V139.058H329.5H343V111.237V83.417L345.75 77.994C350.54 68.548 359.971 64.329 371.475 66.487C376.146 67.364 381.812 72.431 384.414 78.058C386.337 82.216 386.52 84.704 386.829 110.808L387.163 139.058H400.081H413V109.768C413 71.739 411.752 66.478 400.003 54.982C392.481 47.622 383.418 44.05 370.395 43.315C359.946 42.725 353.788 44.256 347.089 49.108L343.034 52.046L342.767 26.302L342.5 0.558L329.25 0.279L316 0V69.529ZM129.723 9.308C124.856 16.739 121.108 22.491 103.497 49.558C100.634 53.958 95.229 62.283 91.486 68.058C76.508 91.167 73.914 95.157 63.863 110.558C58.119 119.358 50.738 130.723 47.46 135.813C44.182 140.904 37.45 151.273 32.5 158.855C27.55 166.438 19.225 179.313 14 187.467C8.775 195.622 3.488 203.543 2.25 205.07C1.012 206.597 0 208.344 0 208.952C0 209.719 5.506 210.058 17.946 210.058H35.893L41.196 202.517C44.113 198.369 49.301 191.161 52.725 186.498C56.149 181.835 59.485 177.019 60.14 175.796C60.795 174.572 68.215 163.164 76.628 150.444C85.041 137.724 92.473 126.022 93.144 124.438C94.241 121.846 103.332 106.568 114.196 89.058C129.672 64.116 143.624 42.241 145.171 40.494C146.177 39.358 147 38.172 147 37.858C147 37.544 149.843 32.173 153.317 25.923C156.791 19.672 161.313 11.52 163.366 7.808L167.098 1.058H151.112H135.126L129.723 9.308ZM242 22.558V44.058H233H224V54.558V65.058H232.921H241.841L242.171 88.808C242.498 112.44 242.514 112.588 245.324 118.668C254.177 137.824 277.159 145.469 300.25 136.938C303.413 135.77 306 134.455 306 134.016C306 133.091 299.96 115.738 299.45 115.196C299.262 114.996 296.979 115.559 294.376 116.446C285.109 119.603 276.667 117.419 271.384 110.498L268.5 106.72L268.194 85.889L267.888 65.058H284.444H301V54.558V44.058H284.5H268V22.558V1.058H255H242V22.558ZM464 44.666C436.816 51.964 422.477 77.655 429.87 105.816C432.176 114.599 435.822 120.963 441.869 126.758C451.709 136.188 462.42 140.058 478.684 140.058C493.111 140.058 503.156 136.997 512.271 129.824C515.88 126.984 521.583 119.682 522.205 117.106C522.384 116.364 518.387 114.4 512.048 112.113L501.596 108.344L498.516 111.609C490.211 120.415 468.508 119.759 459.814 110.438C458.336 108.854 456.662 106.326 456.093 104.82L455.059 102.083L491.279 101.82L527.5 101.558L527.386 92.031C527.2 76.514 523.515 66.594 514.38 57.017C505.483 47.69 493.234 43.007 478.04 43.124C473.343 43.16 467.025 43.854 464 44.666ZM584.994 43.992C580.556 45.342 575.581 48.205 572.351 51.268L569.202 54.254L568.526 50.906C567.047 43.574 567.973 44.058 555.433 44.058H544V91.558V139.058H557.456H570.912L571.206 110.808C571.496 82.955 571.535 82.488 574 77.565C575.583 74.403 578.089 71.47 580.831 69.568C584.559 66.983 586.228 66.521 592.831 66.242C599.901 65.944 600.859 66.15 605.106 68.875C608.277 70.911 610.457 73.346 612.106 76.695C614.437 81.431 614.508 82.31 614.806 110.308L615.113 139.058H628.655H642.198L641.748 109.308C641.4 86.299 640.941 78.312 639.723 74.058C635.232 58.373 623.594 47.685 607.201 44.188C601.296 42.929 588.851 42.819 584.994 43.992ZM490.751 68.232C495.095 70.281 500.444 75.822 501.323 79.184C501.791 80.977 500.791 81.058 478.305 81.058H454.797L457.283 76.808C460.074 72.035 467.095 67.13 472.78 65.982C478.046 64.918 485.777 65.886 490.751 68.232ZM713.845 152.491C704.993 155.874 702 159.814 702 168.085C702 177.135 707.442 180.493 724 181.659C734.928 182.429 739.716 183.658 740.979 186.02C743.285 190.327 738.349 193.944 729.011 194.791C721.943 195.432 714.523 192.565 713.021 188.612C712.187 186.419 711.445 186.06 707.775 186.073C702.013 186.094 700.554 187.144 701.431 190.64C702.516 194.963 705.782 198.906 710.103 201.11C717.955 205.116 736.457 205.479 743.569 201.767C751.823 197.458 755.289 188.463 751.445 181.326C748.604 176.05 743.919 174.244 729.815 172.986C716.547 171.803 712.663 170.368 713.189 166.845C713.719 163.29 718.158 160.89 725.13 160.39C732.411 159.867 737.799 161.927 739.5 165.885C740.43 168.048 740.886 168.164 746 167.538C749.025 167.168 751.611 166.76 751.747 166.631C751.883 166.502 751.276 164.289 750.398 161.711C749.103 157.912 747.921 156.509 744.15 154.295C739.944 151.825 738.45 151.542 728.5 151.329C720.98 151.168 716.343 151.535 713.845 152.491ZM663 156.558V161.058H674H685L684.978 171.808C684.944 188.359 681.309 194.063 670.8 194.054C662.854 194.047 658.3 189.516 656.48 179.808C655.779 176.065 655.768 176.058 650.746 176.058H645.715L646.368 182.308C647.686 194.919 656.305 203.171 668.903 203.883C678.471 204.423 683.358 202.799 688.896 197.238C695.191 190.915 696 187.609 696 168.192V152.058H679.5H663V156.558Z" fill="#1C1146"/>
<path fill-rule="evenodd" clip-rule="evenodd" d="M316 69.529V139.058H329.5H343V111.237V83.417L345.75 77.994C350.54 68.548 359.971 64.329 371.475 66.487C376.146 67.364 381.812 72.431 384.414 78.058C386.337 82.216 386.52 84.704 386.829 110.808L387.163 139.058H400.081H413V109.768C413 71.739 411.752 66.478 400.003 54.982C392.481 47.622 383.418 44.05 370.395 43.315C359.946 42.725 353.788 44.256 347.089 49.108L343.034 52.046L342.767 26.302L342.5 0.558L329.25 0.279L316 0V69.529ZM129.723 9.308C124.856 16.739 121.108 22.491 103.497 49.558C100.634 53.958 95.229 62.283 91.486 68.058C76.508 91.167 73.914 95.157 63.863 110.558C58.119 119.358 50.738 130.723 47.46 135.813C44.182 140.904 37.45 151.273 32.5 158.855C27.55 166.438 19.225 179.313 14 187.467C8.775 195.622 3.488 203.543 2.25 205.07C1.012 206.597 0 208.344 0 208.952C0 209.719 5.506 210.058 17.946 210.058H35.893L41.196 202.522C44.113 198.378 49.538 190.841 53.25 185.775C56.963 180.708 60 176.222 60 175.805C60 174.6 88.116 131.799 90.421 129.494C91.117 128.798 92.278 126.728 93 124.893C94.694 120.589 109.132 96.841 131.834 61.02C147.06 36.995 144.908 40.545 152.119 27.558C161.61 10.467 166 2.268 166 1.637C166 1.319 159.053 1.058 150.563 1.058H135.126L129.723 9.308ZM242 22.558V44.058H233H224V54.558V65.058H232.921H241.841L242.171 88.808C242.498 112.44 242.514 112.588 245.324 118.668C254.177 137.824 277.159 145.469 300.25 136.938C303.413 135.77 306 134.455 306 134.016C306 133.091 299.96 115.738 299.45 115.196C299.262 114.996 296.979 115.559 294.376 116.446C285.109 119.603 276.667 117.419 271.384 110.498L268.5 106.72L268.194 85.889L267.888 65.058H284.444H301V54.558V44.058H284.5H268V22.558V1.058H255H242V22.558ZM464 44.666C436.816 51.964 422.477 77.655 429.87 105.816C432.176 114.599 435.822 120.963 441.869 126.758C451.709 136.188 462.42 140.058 478.684 140.058C493.111 140.058 503.156 136.997 512.271 129.824C515.88 126.984 521.583 119.682 522.205 117.106C522.384 116.364 518.387 114.4 512.048 112.113L501.596 108.344L498.516 111.609C490.211 120.415 468.508 119.759 459.814 110.438C458.336 108.854 456.662 106.326 456.093 104.82L455.059 102.083L491.279 101.82L527.5 101.558L527.386 92.031C527.2 76.514 523.515 66.594 514.38 57.017C505.483 47.69 493.234 43.007 478.04 43.124C473.343 43.16 467.025 43.854 464 44.666ZM584.994 43.992C580.556 45.342 575.581 48.205 572.351 51.268L569.202 54.254L568.526 50.906C567.047 43.574 567.973 44.058 555.433 44.058H544V91.558V139.058H557.456H570.912L571.206 110.808C571.496 82.955 571.535 82.488 574 77.565C575.583 74.403 578.089 71.47 580.831 69.568C584.559 66.983 586.228 66.521 592.831 66.242C599.901 65.944 600.859 66.15 605.106 68.875C608.277 70.911 610.457 73.346 612.106 76.695C614.437 81.431 614.508 82.31 614.806 110.308L615.113 139.058H628.655H642.198L641.748 109.308C641.4 86.299 640.941 78.312 639.723 74.058C635.232 58.373 623.594 47.685 607.201 44.188C601.296 42.929 588.851 42.819 584.994 43.992ZM490.751 68.232C495.095 70.281 500.444 75.822 501.323 79.184C501.791 80.977 500.791 81.058 478.305 81.058H454.797L457.283 76.808C460.074 72.035 467.095 67.13 472.78 65.982C478.046 64.918 485.777 65.886 490.751 68.232ZM713.845 152.491C704.993 155.874 702 159.814 702 168.085C702 177.135 707.442 180.493 724 181.659C734.928 182.429 739.716 183.658 740.979 186.02C743.285 190.327 738.349 193.944 729.011 194.791C721.943 195.432 714.523 192.565 713.021 188.612C712.187 186.419 711.445 186.06 707.775 186.073C702.013 186.094 700.554 187.144 701.431 190.64C702.516 194.963 705.782 198.906 710.103 201.11C717.955 205.116 736.457 205.479 743.569 201.767C751.823 197.458 755.289 188.463 751.445 181.326C748.604 176.05 743.919 174.244 729.815 172.986C716.547 171.803 712.663 170.368 713.189 166.845C713.719 163.29 718.158 160.89 725.13 160.39C732.411 159.867 737.799 161.927 739.5 165.885C740.43 168.048 740.886 168.164 746 167.538C749.025 167.168 751.611 166.76 751.747 166.631C751.883 166.502 751.276 164.289 750.398 161.711C749.103 157.912 747.921 156.509 744.15 154.295C739.944 151.825 738.45 151.542 728.5 151.329C720.98 151.168 716.343 151.535 713.845 152.491ZM663 156.558V161.058H674H685L684.978 171.808C684.944 188.359 681.309 194.063 670.8 194.054C662.854 194.047 658.3 189.516 656.48 179.808C655.779 176.065 655.768 176.058 650.746 176.058H645.715L646.368 182.308C647.686 194.919 656.305 203.171 668.903 203.883C678.471 204.423 683.358 202.799 688.896 197.238C695.191 190.915 696 187.609 696 168.192V152.058H679.5H663V156.558Z" fill="black"/>
</svg>
